<svg xmlns="http://www.w3.org/2000/svg" viewBox="0 -0.5 9 9" shape-rendering="crispEdges">
<metadata>Made with Pixels to Svg https://codepen.io/shshaw/pen/XbxvNj</metadata>
<path stroke="#ffe8b7" d="M0 0h1M8 0h1M0 1h2M7 1h2" />
<path stroke="rgba(255,255,255,0.00392156862745098)" d="M1 0h2M6 0h2M0 2h1M8 2h1M0 5h1M8 5h1M0 8h1M8 8h1" />
<path stroke="#ccd6dd" d="M3 0h3M2 1h5M1 2h7M1 3h2M4 3h1M6 3h2M1 4h7" />
<path stroke="#99aab5" d="M0 3h1M8 3h1M0 4h1M8 4h1" />
<path stroke="#272b2b" d="M3 3h1M5 3h1" />
<path stroke="#e6aaaa" d="M1 5h7M0 6h2M3 6h3M7 6h2M0 7h2M3 7h3M7 7h2M1 8h7" />
<path stroke="#c1694f" d="M2 6h1M6 6h1M2 7h1M6 7h1" />
</svg>