<svg xmlns="http://www.w3.org/2000/svg" viewBox="0 -0.5 64 64" shape-rendering="crispEdges"><path stroke="#fff" d="M11 0h42M11 1h42M9 2h4m38 0h4M9 3h4m38 0h4M7 4h4m2 0h38m2 0h4M7 5h4m2 0h38m2 0h4M5 6h4m2 0h42m2 0h4M5 7h4m2 0h42m2 0h4M5 8h2m2 0h6m4 0h2m4 0h6m6 0h6m6 0h6m2 0h2M5 9h2m2 0h6m4 0h2m4 0h6m6 0h6m6 0h6m2 0h2M5 10h2m2 0h4m2 0h4m2 0h4m2 0h2m2 0h6m2 0h2m2 0h6m2 0h4m2 0h2M5 11h2m2 0h4m2 0h4m2 0h4m2 0h2m2 0h6m2 0h2m2 0h6m2 0h4m2 0h2M5 12h2m2 0h4m2 0h4m2 0h4m2 0h2m2 0h6m2 0h2m2 0h6m2 0h4m2 0h2M5 13h2m2 0h4m2 0h4m2 0h4m2 0h2m2 0h6m2 0h2m2 0h6m2 0h4m2 0h2M5 14h2m2 0h4m2 0h4m2 0h4m2 0h2m2 0h6m2 0h2m2 0h6m2 0h4m2 0h2M5 15h2m2 0h4m2 0h4m2 0h4m2 0h2m2 0h6m2 0h2m2 0h6m2 0h4m2 0h2M5 16h2m2 0h4m2 0h4m2 0h4m2 0h4m6 0h6m6 0h6m2 0h2M5 17h2m2 0h4m2 0h4m2 0h4m2 0h4m6 0h6m6 0h6m2 0h2M5 18h4m2 0h42m2 0h4M5 19h4m2 0h42m2 0h4M7 20h4m2 0h38m2 0h4M7 21h4m2 0h38m2 0h4M9 22h4m22 0h8m8 0h4M9 23h4m22 0h8m8 0h4m-44 1h24m2 0h4m2 0h10m-42 1h24m2 0h4m2 0h10m-20 1h2m2 0h2m2 0h3m-10 1h1m2 0h2m2 0h2m-23 1h8m6 0h3m2 0h3m2 0h8m-32 1h1m6 0h1m7 0h2m2 0h2m3 0h1m6 0h1m-32 1h1m6 0h18m6 0h1m-32 1h1m8 0h2m10 0h2m8 0h1m-32 1h1m8 0h2m10 0h2m8 0h1m-33 1h4m26 0h3m-34 1h5m26 0h1m-33 1h2m28 0h3m-34 1h3m28 0h2m-34 1h2m30 0h2m-35 1h3m30 0h3m-37 1h2m34 0h1m-37 1h2m34 0h1m-37 1h2m34 0h1m-37 1h2m34 0h2m-37 1h5m30 0h2m-36 1h4m30 0h3m-35 1h2m32 0h1m-35 1h2m32 0h2m-36 1h2m32 0h2m-36 1h2m32 0h2m-36 1h2m32 0h2m-41 1h4m1 0h2m32 0h2m-41 1h1m2 0h1m2 0h3m30 0h2M8 52h5m2 0h3m1 0h2m30 0h3M8 53h1m8 0h1m2 0h1m32 0h1M6 54h3m8 0h4m32 0h3M6 55h1m12 0h2m34 0h1M6 56h1m12 0h2m34 0h3M6 57h3m8 0h4m4 0h4m28 0h1M8 58h1m8 0h1m2 0h1m4 0h4m28 0h1M8 59h1m8 0h1m2 0h9m6 0h4m6 0h2m8 0h3M8 60h1m8 0h1m3 0h4m2 0h2m6 0h4m6 0h2m8 0h1M8 61h1m8 0h1m10 0h19m6 0h3M8 62h1m8 0h1m11 0h6m4 0h6m1 0h1m6 0h1M8 63h10m28 0h8"/><path stroke="#000" d="M13 2h38M13 3h38M11 4h2m38 0h2M11 5h2m38 0h2M9 6h2m42 0h2M9 7h2m42 0h2M7 8h2m6 0h4m2 0h4m6 0h6m6 0h6m6 0h2M7 9h2m6 0h4m2 0h4m6 0h6m6 0h6m6 0h2M7 10h2m4 0h2m4 0h2m4 0h2m2 0h2m6 0h2m2 0h2m6 0h2m4 0h2M7 11h2m4 0h2m4 0h2m4 0h2m2 0h2m6 0h2m2 0h2m6 0h2m4 0h2M7 12h2m4 0h2m4 0h2m4 0h2m2 0h2m6 0h2m2 0h2m6 0h2m4 0h2M7 13h2m4 0h2m4 0h2m4 0h2m2 0h2m6 0h2m2 0h2m6 0h2m4 0h2M7 14h2m4 0h2m4 0h2m4 0h2m2 0h2m6 0h2m2 0h2m6 0h2m4 0h2M7 15h2m4 0h2m4 0h2m4 0h2m2 0h2m6 0h2m2 0h2m6 0h2m4 0h2M7 16h2m4 0h2m4 0h2m4 0h2m4 0h6m6 0h6m6 0h2M7 17h2m4 0h2m4 0h2m4 0h2m4 0h6m6 0h6m6 0h2M9 18h2m42 0h2M9 19h2m42 0h2m-44 1h2m38 0h2m-42 1h2m38 0h2m-40 1h22m8 0h8m-38 1h22m8 0h8m-16 1h2m4 0h2m-8 1h2m4 0h2m-8 1h2m2 0h2m-6 1h2m2 0h2m-4 1h2m-18 1h6m10 0h2m6 0h6m-30 1h6m18 0h6m-30 1h2m4 0h2m2 0h10m2 0h2m4 0h2m-30 1h2m4 0h2m2 0h10m2 0h2m4 0h2m-28 1h2m4 0h2m10 0h2m4 0h2m-26 1h2m4 0h2m10 0h2m4 0h2m-30 1h4m2 0h2m18 0h2m-28 1h4m2 0h2m18 0h2m-30 1h4m24 0h2m-30 1h4m24 0h2m-32 1h2m2 0h2m8 0h4m8 0h4m2 0h2m-34 1h2m2 0h2m8 0h4m8 0h4m2 0h2m-34 1h6m6 0h4m2 0h2m4 0h4m2 0h4m-34 1h6m6 0h4m2 0h2m4 0h4m2 0h4m-30 1h2m6 0h8m4 0h10m-30 1h2m6 0h8m4 0h10m-30 1h2m8 0h4m8 0h4m4 0h2m-32 1h2m8 0h4m8 0h4m4 0h2m-32 1h2m28 0h2m-32 1h2m28 0h2m-32 1h2m28 0h2m-32 1h2m28 0h2m-38 1h2m6 0h2m10 0h2m4 0h2m8 0h2m-38 1h2m6 0h2m10 0h2m4 0h2m8 0h2M9 53h4m2 0h2m4 0h4m24 0h4M9 54h4m2 0h2m4 0h4m24 0h4M7 55h2m2 0h2m4 0h2m2 0h2m2 0h4m16 0h4m4 0h2M7 56h2m2 0h2m4 0h2m2 0h2m2 0h4m16 0h4m4 0h2M9 57h2m4 0h2m4 0h4m4 0h2m2 0h8m2 0h4m4 0h2m2 0h2M9 58h2m4 0h2m4 0h4m4 0h2m2 0h8m2 0h4m4 0h2m2 0h2M9 59h2m4 0h2m12 0h6m4 0h6m2 0h2m2 0h4M9 60h2m4 0h2m12 0h6m4 0h6m2 0h2m2 0h4M9 61h8m30 0h6M9 62h8m30 0h6"/><path stroke="#d8d79a" d="M23 31h2m-2 1h2m2 3h2m-2 1h2m-2 1h2m-2 1h2m-4 1h2m18 0h2m-22 1h2m18 0h2m-20 5h2m4 0h8m4 0h2m-20 1h2m4 0h8m4 0h2m-20 1h2m16 0h2m-20 1h2m16 0h2m0 3h2m-2 1h2m-18 5h2m-2 1h2"/><path stroke="#9f786f" d="M25 31h2m-2 1h2m0 1h2m2 0h4m-8 1h2m2 0h4m-6 1h4m6 0h4m-14 1h4m6 0h4m-18 1h2m12 0h4m-18 1h2m12 0h4m-20 3h2m-2 1h2m-2 1h2m-2 1h2m-2 1h2m-2 1h2m0 3h2m-2 1h2m-2 3h2m20 0h2m-24 1h2m20 0h2m-8 3h2m-2 1h2"/><path stroke="#ffc" d="M45 31h2m-2 1h2m-12 1h4m-4 1h4m-6 1h4m-4 1h4m-8 1h8m-8 1h8m-10 1h2m4 0h6m-12 1h2m4 0h6m-4 1h4m-4 1h4m-4 1h4m-4 1h4m8 3h2m-2 1h2m-2 1h2m-2 1h2"/><path stroke="#684840" d="M47 31h2m-2 1h2m-10 1h2m2 0h2m-6 1h2m2 0h2m-8 1h2m4 0h2m-8 1h2m4 0h2m-8 1h2m4 0h2m-8 1h2m4 0h2m-28 1h2m4 0h2m14 0h2m-24 1h2m4 0h2m14 0h2m-20 1h2m2 0h2m-6 1h2m2 0h2m-6 1h2m2 0h2m-6 1h2m2 0h2m-6 1h2m2 0h2m20 0h2m-28 1h2m2 0h2m20 0h2m-26 1h2m-2 1h2m-2 7h2m-2 1h2"/><path stroke="#ffb0a8" d="M25 33h2m18 0h2m-22 1h2m18 0h2M31 47h14m-14 1h14m-16 1h18m-18 1h18m-24 1h2m4 0h4m2 0h4m2 0h6m-24 1h2m4 0h4m2 0h4m2 0h6m-16 1h2m2 0h4m2 0h4m-14 1h2m2 0h4m2 0h4"/><path stroke="#a4a370" d="M23 35h2m-2 1h2m-4 1h4m-4 1h4m-4 1h2m-2 1h2m-2 7h2m2 0h2m-6 1h2m2 0h2m-6 1h4m-4 1h4m0 1h2m-2 1h2"/><path stroke="#fcffff" d="M31 41h2m10 0h2m-14 1h2m10 0h2"/><path stroke="#fe9088" d="M29 47h2m-2 1h2m-4 1h2m-2 1h2m-2 1h2m-2 1h2m-2 1h4m2 0h2m4 0h2m4 0h2m-20 1h4m2 0h2m4 0h2m4 0h2m-18 1h16m-16 1h16"/><path stroke="#74b238" d="M13 53h2m-2 1h2m0 1h2m-2 1h2m36 1h2m-2 1h2"/><path stroke="#58842c" d="M9 55h2m2 0h2m36 0h2M9 56h2m2 0h2m36 0h2m-40 1h2m34 0h2m-38 1h2m34 0h2m-38 1h2m34 0h2m-38 1h2m34 0h2"/><path stroke="#416220" d="M49 55h2m-2 1h2m-40 1h2m34 0h2m-38 1h2m34 0h2m-38 1h2m-2 1h2"/></svg>